<?xml version="1.0" standalone="no"?>
<!DOCTYPE svg PUBLIC "-//W3C//DTD SVG 20010904//EN"
 "http://www.w3.org/TR/2001/REC-SVG-20010904/DTD/svg10.dtd">
<svg version="1.0" xmlns="http://www.w3.org/2000/svg"
 width="500.000000pt" height="500.000000pt" viewBox="0 0 500.000000 500.000000"
 preserveAspectRatio="xMidYMid meet">

<g transform="translate(0.000000,500.000000) scale(0.100000,-0.100000)"
fill="#000000" stroke="none">
<path d="M1186 4139 c-2 -8 -18 -104 -35 -213 -17 -110 -32 -201 -34 -202 -1
-1 -54 -7 -117 -14 -63 -6 -116 -12 -117 -14 -4 -3 22 -315 47 -566 22 -222
30 -345 24 -384 -5 -41 -15 -103 -34 -213 -20 -115 -110 -663 -119 -725 -12
-76 -46 -273 -60 -347 -16 -80 -18 -77 67 -90 42 -7 97 -16 122 -21 25 -5 68
-12 97 -15 36 -5 54 -12 57 -23 2 -10 8 -68 11 -130 4 -62 11 -114 15 -117 4
-2 194 11 421 30 637 54 591 53 829 11 390 -68 558 -97 655 -111 22 -3 58 -10
80 -15 22 -5 74 -14 115 -20 41 -6 93 -15 115 -20 22 -5 74 -14 115 -20 41 -6
95 -16 120 -20 25 -5 61 -11 81 -15 l36 -5 7 47 c3 27 10 68 15 93 4 25 16 90
25 145 10 55 22 104 26 109 5 5 66 13 136 19 l127 11 -7 100 c-3 56 -11 144
-16 196 -6 52 -14 149 -20 215 -5 66 -14 165 -19 220 -33 329 -34 349 -17 457
9 56 26 159 37 228 11 69 24 151 29 183 6 31 14 84 20 117 5 33 14 86 20 118
5 31 14 89 20 127 6 39 15 95 20 125 20 115 40 244 40 255 0 7 -28 17 -62 24
-105 20 -161 29 -210 36 -54 7 -53 5 -63 148 -6 81 -8 87 -28 87 -12 0 -206
-16 -432 -35 -225 -19 -437 -35 -470 -35 -33 0 -152 16 -265 36 -113 19 -230
39 -260 44 -30 5 -82 14 -115 20 -33 6 -85 15 -115 20 -30 5 -82 14 -115 20
-33 6 -85 15 -115 20 -30 5 -80 14 -110 19 -30 6 -107 19 -170 30 -239 41
-356 62 -377 68 -14 3 -24 0 -27 -8z m309 -269 c60 -11 144 -25 240 -41 39 -6
89 -15 112 -20 23 -5 58 -9 77 -9 20 0 36 -4 36 -10 0 -5 -21 -10 -47 -10 -42
0 -155 -8 -497 -37 l-79 -6 6 34 c3 19 9 53 12 77 l7 43 41 -6 c23 -3 65 -10
92 -15z m2115 -147 c0 -5 7 -84 15 -178 8 -93 35 -406 60 -695 25 -289 61
-696 80 -905 31 -341 40 -464 33 -466 -2 0 -55 -4 -118 -9 -149 -11 -1052 -87
-1195 -99 -60 -6 -168 -15 -240 -21 -71 -6 -317 -26 -545 -45 -441 -37 -430
-37 -430 13 0 13 -16 229 -35 480 -19 252 -39 518 -45 592 -5 74 -14 185 -20
245 -11 121 -24 281 -40 480 -6 72 -15 171 -20 222 -6 50 -10 115 -10 142 l0
51 48 0 c26 0 124 7 217 15 151 13 472 39 1325 106 215 17 889 74 913 78 4 1
7 -2 7 -6z m274 -270 c-6 -46 -23 -148 -31 -183 l-6 -25 -7 25 c-4 14 -10 69
-14 123 l-7 97 35 0 c34 0 35 0 30 -37z m-2835 -1729 c6 -92 9 -169 7 -172 -3
-2 -22 0 -43 5 -36 9 -38 11 -37 45 2 51 46 288 54 288 4 0 12 -75 19 -166z
m2470 -481 c0 -10 -6 -40 -13 -68 -11 -48 -12 -50 -46 -49 -19 0 -64 6 -100
13 -107 20 -286 49 -370 60 -79 11 -43 17 205 36 116 9 215 18 220 20 6 2 31
4 58 4 39 1 47 -2 46 -16z"/>
<path d="M1310 2570 l0 -403 38 7 c20 3 47 6 60 6 22 0 22 1 22 161 l0 160 32
-3 31 -3 42 -160 41 -160 57 -3 c41 -2 57 1 57 10 0 7 -18 86 -41 175 l-41
163 26 31 c36 42 41 67 41 189 0 85 -4 113 -20 145 -33 65 -69 79 -217 84
l-128 3 0 -402z m223 270 c47 -37 48 -160 1 -207 -17 -16 -34 -23 -64 -23
l-40 0 0 125 0 125 39 0 c23 0 48 -8 64 -20z"/>
<path d="M1750 2575 l0 -395 160 0 160 0 0 61 0 61 -100 -4 -100 -3 0 118 0
117 80 0 80 0 0 33 c0 72 -4 76 -89 79 l-76 3 -3 108 -3 107 101 0 100 0 0 55
0 55 -155 0 -155 0 0 -395z"/>
<path d="M2290 2575 l0 -395 55 0 55 0 2 286 3 286 54 -258 c67 -319 65 -314
102 -314 34 0 28 -18 95 320 l49 245 3 -282 2 -283 55 0 55 0 0 395 0 395 -83
0 -83 0 -12 -72 c-14 -76 -28 -148 -42 -208 -4 -19 -14 -66 -20 -105 -7 -38
-15 -77 -17 -85 -7 -20 -15 11 -48 195 -15 83 -31 166 -36 185 -5 19 -9 47 -9
63 l0 27 -90 0 -90 0 0 -395z"/>
<path d="M2986 2958 c-3 -7 -7 -31 -9 -53 -7 -49 -59 -353 -92 -535 -14 -74
-27 -147 -30 -162 -4 -28 -4 -28 49 -28 l54 0 11 50 c6 28 11 59 11 70 0 44 9
50 80 50 l68 0 6 -47 c4 -27 9 -65 12 -85 l6 -38 60 0 c54 0 59 2 53 19 -3 11
-10 44 -15 75 -6 31 -15 82 -20 114 -6 31 -16 84 -21 117 -27 154 -28 160 -60
333 -5 31 -13 74 -16 95 l-6 37 -69 0 c-46 0 -70 -4 -72 -12z m94 -260 c5 -40
14 -104 19 -143 5 -38 7 -73 5 -77 -6 -9 -88 -11 -96 -3 -3 3 5 74 18 158 13
83 24 157 24 162 2 30 22 -35 30 -97z"/>
<path d="M3290 2663 c1 -169 5 -347 7 -395 l6 -88 50 0 49 0 -4 250 c-2 137
-1 246 2 242 4 -4 12 -27 19 -52 8 -25 17 -56 21 -70 4 -14 18 -59 30 -100 12
-41 25 -86 30 -100 4 -14 18 -58 30 -97 l21 -73 50 0 49 0 -2 393 -3 392 -47
3 -48 3 0 -212 c0 -117 -3 -209 -6 -206 -4 4 -35 98 -69 209 l-62 203 -62 3
-63 3 2 -308z"/>
<path d="M2136 2299 c-50 -39 -24 -119 38 -119 64 0 95 82 47 122 -30 23 -52
23 -85 -3z"/>
</g>
</svg>
